<svg xmlns="http://www.w3.org/2000/svg" width="1320" height="650" viewBox="0 0 1320 650"><rect width="1320" height="650" fill="white"/><text x="45" y="53" font-family="Arial,sans-serif" font-size="28" fill="#192f3d">Small price changes materially reduce compounded P&amp;L</text><text x="45" y="82" font-family="Arial,sans-serif" font-size="16" fill="#65747d">Hypothetical prices only. Next-bar result withheld because its entry timestamp uses future information.</text><polyline points="380.00,130.00 380.00,550.00" fill="none" stroke="#dce3e8" stroke-width="1"/><text x="355.0" y="576" font-family="Arial,sans-serif" font-size="14" fill="#65747d">0</text><polyline points="582.50,130.00 582.50,550.00" fill="none" stroke="#dce3e8" stroke-width="1"/><text x="557.5" y="576" font-family="Arial,sans-serif" font-size="14" fill="#65747d">58,872</text><polyline points="785.00,130.00 785.00,550.00" fill="none" stroke="#dce3e8" stroke-width="1"/><text x="760.0" y="576" font-family="Arial,sans-serif" font-size="14" fill="#65747d">117,744</text><polyline points="987.50,130.00 987.50,550.00" fill="none" stroke="#dce3e8" stroke-width="1"/><text x="962.5" y="576" font-family="Arial,sans-serif" font-size="14" fill="#65747d">176,616</text><polyline points="1190.00,130.00 1190.00,550.00" fill="none" stroke="#dce3e8" stroke-width="1"/><text x="1165.0" y="576" font-family="Arial,sans-serif" font-size="14" fill="#65747d">235,488</text><text x="40" y="165.0" font-family="Arial,sans-serif" font-size="17" fill="#192f3d">78 / 67 reference</text><rect x="380.0" y="138.0" width="810.0" height="43.0" fill="#21618c"/><text x="1198.0" y="163.0" font-family="Arial,sans-serif" font-size="15" fill="#192f3d">235,488.2</text><text x="40" y="225.0" font-family="Arial,sans-serif" font-size="17" fill="#192f3d">79 / 67</text><rect x="380.0" y="198.0" width="466.2706841591794" height="43.0" fill="#21618c"/><text x="854.2706841591794" y="223.0" font-family="Arial,sans-serif" font-size="15" fill="#192f3d">135,557.1</text><text x="40" y="285.0" font-family="Arial,sans-serif" font-size="17" fill="#192f3d">80 / 67</text><rect x="380.0" y="258.0" width="259.7811393336175" height="43.0" fill="#21618c"/><text x="647.7811393336175" y="283.0" font-family="Arial,sans-serif" font-size="15" fill="#192f3d">75,525.2</text><text x="40" y="345.0" font-family="Arial,sans-serif" font-size="17" fill="#192f3d">78 / 66</text><rect x="380.0" y="318.0" width="624.9041276721405" height="43.0" fill="#21618c"/><text x="1012.9041276721405" y="343.0" font-family="Arial,sans-serif" font-size="15" fill="#192f3d">181,676.0</text><text x="40" y="405.0" font-family="Arial,sans-serif" font-size="17" fill="#192f3d">78 / 65</text><rect x="380.0" y="378.0" width="478.35597480943625" height="43.0" fill="#21618c"/><text x="866.3559748094362" y="403.0" font-family="Arial,sans-serif" font-size="15" fill="#192f3d">139,070.6</text><text x="40" y="465.0" font-family="Arial,sans-serif" font-size="17" fill="#192f3d">80 / 65</text><rect x="380.0" y="438.0" width="136.64312705631346" height="43.0" fill="#21618c"/><text x="524.6431270563135" y="463.0" font-family="Arial,sans-serif" font-size="15" fill="#192f3d">39,725.7</text><text x="40" y="525.0" font-family="Arial,sans-serif" font-size="17" fill="#192f3d">Fee coefficient 0.07</text><rect x="380.0" y="498.0" width="365.879817407396" height="43.0" fill="#21618c"/><text x="753.879817407396" y="523.0" font-family="Arial,sans-serif" font-size="15" fill="#192f3d">106,370.8</text><text x="600" y="595" font-family="Arial,sans-serif" font-size="14" fill="#65747d">Net P&amp;L ($)</text><text x="45" y="619" font-family="Arial,sans-serif" font-size="13" fill="#65747d">Source: saved run tables and independent audit. Same historical selected population; no forecast.</text></svg>