<svg xmlns="http://www.w3.org/2000/svg" width="640" height="360" viewBox="0 0 640 360"><text x="16" y="24" fill="#e8e6df" font-size="14">PCA survive vs T40</text><circle cx="264.0" cy="162.4" r="3" fill="#7dce9a" opacity="0.75"/><circle cx="287.1" cy="185.5" r="3" fill="#e07a7a" opacity="0.75"/><circle cx="235.1" cy="206.7" r="3" fill="#7dce9a" opacity="0.75"/><circle cx="233.2" cy="172.2" r="3" fill="#7dce9a" opacity="0.75"/><circle cx="215.8" cy="230.3" r="3" fill="#7dce9a" opacity="0.75"/><circle cx="377.2" cy="225.3" r="3" fill="#7dce9a" opacity="0.75"/><circle cx="268.4" cy="192.0" r="3" fill="#7dce9a" opacity="0.75"/><circle cx="271.4" cy="127.6" r="3" fill="#e07a7a" opacity="0.75"/><circle cx="257.5" cy="227.8" r="3" fill="#e07a7a" opacity="0.75"/><circle cx="235.7" cy="216.6" r="3" fill="#7dce9a" opacity="0.75"/><circle cx="281.4" cy="212.5" r="3" fill="#7dce9a" opacity="0.75"/><circle cx="152.2" cy="182.0" r="3" fill="#7dce9a" opacity="0.75"/><circle cx="201.6" cy="201.0" r="3" fill="#7dce9a" opacity="0.75"/><circle cx="307.2" cy="128.9" r="3" fill="#e07a7a" opacity="0.75"/><circle cx="254.5" cy="161.3" r="3" fill="#e07a7a" opacity="0.75"/><circle cx="326.7" cy="210.2" r="3" fill="#7dce9a" opacity="0.75"/><circle cx="209.9" cy="170.2" r="3" fill="#e07a7a" opacity="0.75"/><circle cx="322.1" cy="220.8" r="3" fill="#7dce9a" opacity="0.75"/><circle cx="193.5" cy="202.4" r="3" fill="#7dce9a" opacity="0.75"/><circle cx="189.7" cy="197.0" r="3" fill="#7dce9a" opacity="0.75"/><circle cx="310.4" cy="221.9" r="3" fill="#e07a7a" opacity="0.75"/><circle cx="307.3" cy="178.5" r="3" fill="#7dce9a" opacity="0.75"/><circle cx="211.7" cy="201.7" r="3" fill="#e07a7a" opacity="0.75"/><circle cx="255.6" cy="193.1" r="3" fill="#7dce9a" opacity="0.75"/><circle cx="219.8" cy="208.9" r="3" fill="#e07a7a" opacity="0.75"/><circle cx="310.2" cy="104.5" r="3" fill="#7dce9a" opacity="0.75"/><circle cx="120.7" cy="173.3" r="3" fill="#e07a7a" opacity="0.75"/><circle cx="202.0" cy="200.3" r="3" fill="#e07a7a" opacity="0.75"/><circle cx="253.0" cy="234.8" r="3" fill="#7dce9a" opacity="0.75"/><circle cx="275.4" cy="232.6" r="3" fill="#7dce9a" opacity="0.75"/><circle cx="254.1" cy="117.0" r="3" fill="#e07a7a" opacity="0.75"/><circle cx="235.7" cy="220.2" r="3" fill="#e07a7a" opacity="0.75"/><circle cx="194.8" cy="189.0" r="3" fill="#7dce9a" opacity="0.75"/><circle cx="289.8" cy="51.4" r="3" fill="#7dce9a" opacity="0.75"/><circle cx="295.9" cy="188.9" r="3" fill="#7dce9a" opacity="0.75"/><circle cx="256.3" cy="215.0" r="3" fill="#7dce9a" opacity="0.75"/><circle cx="280.5" cy="212.5" r="3" fill="#7dce9a" opacity="0.75"/><circle cx="231.8" cy="111.1" r="3" fill="#7dce9a" opacity="0.75"/><circle cx="171.2" cy="184.5" r="3" fill="#7dce9a" opacity="0.75"/><circle cx="320.0" cy="189.3" r="3" fill="#7dce9a" opacity="0.75"/><circle cx="224.3" cy="184.3" r="3" fill="#7dce9a" opacity="0.75"/><circle cx="232.2" cy="131.6" r="3" fill="#7dce9a" opacity="0.75"/><circle cx="367.0" cy="254.0" r="3" fill="#e07a7a" opacity="0.75"/><circle cx="249.7" cy="200.0" r="3" fill="#7dce9a" opacity="0.75"/><circle cx="320.9" cy="213.7" r="3" fill="#e07a7a" opacity="0.75"/><circle cx="295.1" cy="219.0" r="3" fill="#7dce9a" opacity="0.75"/><circle cx="232.2" cy="149.4" r="3" fill="#7dce9a" opacity="0.75"/><circle cx="303.6" cy="208.5" r="3" fill="#7dce9a" opacity="0.75"/><circle cx="195.5" cy="219.5" r="3" fill="#7dce9a" opacity="0.75"/><circle cx="184.7" cy="200.4" r="3" fill="#7dce9a" opacity="0.75"/><circle cx="201.9" cy="164.0" r="3" fill="#7dce9a" opacity="0.75"/><circle cx="274.1" cy="202.1" r="3" fill="#7dce9a" opacity="0.75"/><circle cx="185.9" cy="204.7" r="3" fill="#7dce9a" opacity="0.75"/><circle cx="290.0" cy="194.5" r="3" fill="#7dce9a" opacity="0.75"/><circle cx="352.6" cy="157.1" r="3" fill="#e07a7a" opacity="0.75"/><circle cx="251.4" cy="188.8" r="3" fill="#7dce9a" opacity="0.75"/><circle cx="184.8" cy="180.4" r="3" fill="#7dce9a" opacity="0.75"/><circle cx="333.9" cy="194.2" r="3" fill="#7dce9a" opacity="0.75"/><circle cx="187.3" cy="168.5" r="3" fill="#7dce9a" opacity="0.75"/><circle cx="291.1" cy="226.2" r="3" fill="#e07a7a" opacity="0.75"/><circle cx="249.9" cy="216.0" r="3" fill="#7dce9a" opacity="0.75"/><circle cx="187.2" cy="187.8" r="3" fill="#7dce9a" opacity="0.75"/><circle cx="185.0" cy="194.6" r="3" fill="#7dce9a" opacity="0.75"/><circle cx="170.5" cy="178.1" r="3" fill="#7dce9a" opacity="0.75"/><circle cx="157.7" cy="203.4" r="3" fill="#7dce9a" opacity="0.75"/><circle cx="193.3" cy="194.6" r="3" fill="#7dce9a" opacity="0.75"/><circle cx="207.6" cy="206.8" r="3" fill="#e07a7a" opacity="0.75"/><circle cx="254.3" cy="163.1" r="3" fill="#7dce9a" opacity="0.75"/><circle cx="169.1" cy="218.2" r="3" fill="#7dce9a" opacity="0.75"/><circle cx="211.6" cy="198.3" r="3" fill="#7dce9a" opacity="0.75"/><circle cx="297.9" cy="244.0" r="3" fill="#7dce9a" opacity="0.75"/><circle cx="129.1" cy="186.3" r="3" fill="#7dce9a" opacity="0.75"/><circle cx="345.8" cy="237.0" r="3" fill="#e07a7a" opacity="0.75"/><circle cx="312.5" cy="239.7" r="3" fill="#7dce9a" opacity="0.75"/><circle cx="161.8" cy="170.4" r="3" fill="#7dce9a" opacity="0.75"/><circle cx="186.2" cy="213.6" r="3" fill="#e07a7a" opacity="0.75"/><circle cx="203.2" cy="186.2" r="3" fill="#e07a7a" opacity="0.75"/><circle cx="342.1" cy="79.1" r="3" fill="#7dce9a" opacity="0.75"/><circle cx="92.4" cy="185.2" r="3" fill="#7dce9a" opacity="0.75"/><circle cx="168.9" cy="211.9" r="3" fill="#e07a7a" opacity="0.75"/><circle cx="68.5" cy="210.1" r="3" fill="#7dce9a" opacity="0.75"/><circle cx="218.7" cy="189.3" r="3" fill="#7dce9a" opacity="0.75"/><circle cx="288.7" cy="168.7" r="3" fill="#7dce9a" opacity="0.75"/><circle cx="489.8" cy="71.7" r="3" fill="#e07a7a" opacity="0.75"/><circle cx="253.5" cy="184.8" r="3" fill="#7dce9a" opacity="0.75"/><circle cx="294.8" cy="162.0" r="3" fill="#7dce9a" opacity="0.75"/><circle cx="174.3" cy="191.9" r="3" fill="#7dce9a" opacity="0.75"/><circle cx="179.4" cy="162.3" r="3" fill="#7dce9a" opacity="0.75"/><circle cx="267.8" cy="195.5" r="3" fill="#e07a7a" opacity="0.75"/><circle cx="280.0" cy="150.8" r="3" fill="#7dce9a" opacity="0.75"/><circle cx="161.1" cy="175.1" r="3" fill="#e07a7a" opacity="0.75"/><circle cx="139.9" cy="174.7" r="3" fill="#7dce9a" opacity="0.75"/><circle cx="221.0" cy="173.2" r="3" fill="#7dce9a" opacity="0.75"/><circle cx="271.8" cy="187.2" r="3" fill="#7dce9a" opacity="0.75"/><circle cx="260.6" cy="148.7" r="3" fill="#7dce9a" opacity="0.75"/><circle cx="283.8" cy="125.8" r="3" fill="#e07a7a" opacity="0.75"/><circle cx="158.1" cy="165.0" r="3" fill="#7dce9a" opacity="0.75"/><circle cx="187.9" cy="210.0" r="3" fill="#7dce9a" opacity="0.75"/><circle cx="222.2" cy="195.3" r="3" fill="#7dce9a" opacity="0.75"/><circle cx="231.6" cy="231.0" r="3" fill="#7dce9a" opacity="0.75"/><circle cx="179.1" cy="114.1" r="3" fill="#e07a7a" opacity="0.75"/><circle cx="385.9" cy="135.2" r="3" fill="#e07a7a" opacity="0.75"/><circle cx="239.3" cy="220.5" r="3" fill="#7dce9a" opacity="0.75"/><circle cx="220.0" cy="193.3" r="3" fill="#7dce9a" opacity="0.75"/><circle cx="221.0" cy="207.3" r="3" fill="#7dce9a" opacity="0.75"/><circle cx="358.0" cy="175.4" r="3" fill="#7dce9a" opacity="0.75"/><circle cx="419.1" cy="237.9" r="3" fill="#7dce9a" opacity="0.75"/><circle cx="179.6" cy="210.8" r="3" fill="#e07a7a" opacity="0.75"/><circle cx="407.6" cy="168.6" r="3" fill="#e07a7a" opacity="0.75"/><circle cx="131.0" cy="182.7" r="3" fill="#7dce9a" opacity="0.75"/><circle cx="208.2" cy="199.8" r="3" fill="#7dce9a" opacity="0.75"/><circle cx="321.1" cy="218.6" r="3" fill="#e07a7a" opacity="0.75"/><circle cx="220.6" cy="217.1" r="3" fill="#7dce9a" opacity="0.75"/><circle cx="307.4" cy="198.7" r="3" fill="#7dce9a" opacity="0.75"/><circle cx="182.2" cy="170.6" r="3" fill="#7dce9a" opacity="0.75"/><circle cx="267.8" cy="218.5" r="3" fill="#7dce9a" opacity="0.75"/><circle cx="233.1" cy="186.9" r="3" fill="#7dce9a" opacity="0.75"/><circle cx="233.3" cy="191.0" r="3" fill="#e07a7a" opacity="0.75"/><circle cx="172.4" cy="153.7" r="3" fill="#7dce9a" opacity="0.75"/><circle cx="161.8" cy="188.4" r="3" fill="#7dce9a" opacity="0.75"/><circle cx="238.2" cy="219.2" r="3" fill="#7dce9a" opacity="0.75"/><circle cx="363.6" cy="239.6" r="3" fill="#7dce9a" opacity="0.75"/><circle cx="600.0" cy="104.0" r="3" fill="#7dce9a" opacity="0.75"/><circle cx="160.8" cy="198.6" r="3" fill="#7dce9a" opacity="0.75"/><circle cx="234.0" cy="223.1" r="3" fill="#7dce9a" opacity="0.75"/><circle cx="251.2" cy="221.4" r="3" fill="#7dce9a" opacity="0.75"/><circle cx="185.3" cy="186.1" r="3" fill="#7dce9a" opacity="0.75"/><circle cx="174.1" cy="185.7" r="3" fill="#7dce9a" opacity="0.75"/><circle cx="142.7" cy="178.8" r="3" fill="#7dce9a" opacity="0.75"/><circle cx="186.9" cy="143.3" r="3" fill="#7dce9a" opacity="0.75"/><circle cx="234.3" cy="162.4" r="3" fill="#7dce9a" opacity="0.75"/><circle cx="390.5" cy="227.6" r="3" fill="#7dce9a" opacity="0.75"/><circle cx="153.1" cy="168.1" r="3" fill="#7dce9a" opacity="0.75"/><circle cx="184.0" cy="174.7" r="3" fill="#7dce9a" opacity="0.75"/><circle cx="295.3" cy="200.6" r="3" fill="#7dce9a" opacity="0.75"/><circle cx="276.6" cy="208.8" r="3" fill="#7dce9a" opacity="0.75"/><circle cx="204.7" cy="134.5" r="3" fill="#7dce9a" opacity="0.75"/><circle cx="150.8" cy="190.0" r="3" fill="#7dce9a" opacity="0.75"/><circle cx="229.4" cy="211.8" r="3" fill="#e07a7a" opacity="0.75"/><circle cx="247.7" cy="229.9" r="3" fill="#7dce9a" opacity="0.75"/><circle cx="177.3" cy="195.5" r="3" fill="#7dce9a" opacity="0.75"/><circle cx="222.5" cy="197.6" r="3" fill="#7dce9a" opacity="0.75"/><circle cx="206.7" cy="170.8" r="3" fill="#7dce9a" opacity="0.75"/><circle cx="222.9" cy="211.0" r="3" fill="#e07a7a" opacity="0.75"/><circle cx="198.4" cy="177.5" r="3" fill="#7dce9a" opacity="0.75"/><circle cx="247.8" cy="217.0" r="3" fill="#7dce9a" opacity="0.75"/><circle cx="414.6" cy="207.7" r="3" fill="#7dce9a" opacity="0.75"/><circle cx="240.8" cy="205.9" r="3" fill="#7dce9a" opacity="0.75"/><circle cx="126.4" cy="180.1" r="3" fill="#e07a7a" opacity="0.75"/><circle cx="153.0" cy="127.8" r="3" fill="#e07a7a" opacity="0.75"/><circle cx="211.1" cy="191.1" r="3" fill="#7dce9a" opacity="0.75"/><circle cx="247.3" cy="230.8" r="3" fill="#7dce9a" opacity="0.75"/><circle cx="105.1" cy="189.7" r="3" fill="#e07a7a" opacity="0.75"/><circle cx="258.6" cy="117.4" r="3" fill="#7dce9a" opacity="0.75"/><circle cx="141.5" cy="149.9" r="3" fill="#e07a7a" opacity="0.75"/><circle cx="347.1" cy="199.3" r="3" fill="#7dce9a" opacity="0.75"/><circle cx="139.9" cy="207.5" r="3" fill="#7dce9a" opacity="0.75"/><circle cx="248.4" cy="182.6" r="3" fill="#7dce9a" opacity="0.75"/><circle cx="72.2" cy="203.9" r="3" fill="#7dce9a" opacity="0.75"/><circle cx="167.2" cy="182.2" r="3" fill="#e07a7a" opacity="0.75"/><circle cx="178.1" cy="190.9" r="3" fill="#e07a7a" opacity="0.75"/><circle cx="162.8" cy="197.3" r="3" fill="#e07a7a" opacity="0.75"/><circle cx="224.7" cy="209.0" r="3" fill="#7dce9a" opacity="0.75"/><circle cx="194.4" cy="182.2" r="3" fill="#7dce9a" opacity="0.75"/><circle cx="398.5" cy="194.9" r="3" fill="#7dce9a" opacity="0.75"/><circle cx="395.6" cy="214.0" r="3" fill="#7dce9a" opacity="0.75"/><circle cx="170.1" cy="167.7" r="3" fill="#7dce9a" opacity="0.75"/><circle cx="216.3" cy="207.5" r="3" fill="#7dce9a" opacity="0.75"/><circle cx="427.6" cy="258.3" r="3" fill="#7dce9a" opacity="0.75"/><circle cx="261.8" cy="221.9" r="3" fill="#7dce9a" opacity="0.75"/><circle cx="159.2" cy="157.6" r="3" fill="#7dce9a" opacity="0.75"/><circle cx="205.3" cy="122.4" r="3" fill="#7dce9a" opacity="0.75"/><circle cx="355.2" cy="170.0" r="3" fill="#7dce9a" opacity="0.75"/><circle cx="205.2" cy="203.1" r="3" fill="#7dce9a" opacity="0.75"/><circle cx="151.3" cy="200.8" r="3" fill="#7dce9a" opacity="0.75"/><circle cx="300.7" cy="167.6" r="3" fill="#e07a7a" opacity="0.75"/><circle cx="189.2" cy="175.2" r="3" fill="#e07a7a" opacity="0.75"/><circle cx="308.6" cy="255.0" r="3" fill="#e07a7a" opacity="0.75"/><circle cx="191.1" cy="164.0" r="3" fill="#e07a7a" opacity="0.75"/><circle cx="219.0" cy="201.6" r="3" fill="#7dce9a" opacity="0.75"/><circle cx="308.8" cy="179.1" r="3" fill="#7dce9a" opacity="0.75"/><circle cx="292.8" cy="145.0" r="3" fill="#7dce9a" opacity="0.75"/><circle cx="390.8" cy="175.7" r="3" fill="#e07a7a" opacity="0.75"/><circle cx="257.8" cy="140.9" r="3" fill="#e07a7a" opacity="0.75"/><circle cx="364.2" cy="232.2" r="3" fill="#7dce9a" opacity="0.75"/><circle cx="234.6" cy="161.0" r="3" fill="#e07a7a" opacity="0.75"/><circle cx="327.9" cy="193.9" r="3" fill="#7dce9a" opacity="0.75"/><circle cx="349.6" cy="225.3" r="3" fill="#e07a7a" opacity="0.75"/><circle cx="272.7" cy="171.6" r="3" fill="#7dce9a" opacity="0.75"/><circle cx="421.4" cy="168.1" r="3" fill="#7dce9a" opacity="0.75"/><circle cx="218.4" cy="205.3" r="3" fill="#e07a7a" opacity="0.75"/><circle cx="277.4" cy="105.3" r="3" fill="#7dce9a" opacity="0.75"/><circle cx="176.7" cy="155.2" r="3" fill="#e07a7a" opacity="0.75"/><circle cx="243.3" cy="199.0" r="3" fill="#7dce9a" opacity="0.75"/><circle cx="179.9" cy="189.8" r="3" fill="#7dce9a" opacity="0.75"/><circle cx="205.2" cy="126.4" r="3" fill="#7dce9a" opacity="0.75"/><circle cx="210.5" cy="211.8" r="3" fill="#e07a7a" opacity="0.75"/><circle cx="423.5" cy="173.9" r="3" fill="#7dce9a" opacity="0.75"/><circle cx="184.0" cy="185.0" r="3" fill="#e07a7a" opacity="0.75"/><circle cx="137.6" cy="195.7" r="3" fill="#7dce9a" opacity="0.75"/><circle cx="231.2" cy="140.9" r="3" fill="#e07a7a" opacity="0.75"/><circle cx="198.5" cy="215.5" r="3" fill="#7dce9a" opacity="0.75"/><circle cx="187.0" cy="154.5" r="3" fill="#7dce9a" opacity="0.75"/><circle cx="269.7" cy="177.8" r="3" fill="#7dce9a" opacity="0.75"/><circle cx="180.5" cy="178.9" r="3" fill="#7dce9a" opacity="0.75"/><circle cx="213.7" cy="214.4" r="3" fill="#7dce9a" opacity="0.75"/><circle cx="213.7" cy="205.1" r="3" fill="#7dce9a" opacity="0.75"/><circle cx="206.5" cy="127.9" r="3" fill="#7dce9a" opacity="0.75"/><circle cx="257.1" cy="183.3" r="3" fill="#e07a7a" opacity="0.75"/><circle cx="207.3" cy="190.5" r="3" fill="#7dce9a" opacity="0.75"/><circle cx="220.6" cy="210.7" r="3" fill="#7dce9a" opacity="0.75"/><circle cx="296.7" cy="205.9" r="3" fill="#7dce9a" opacity="0.75"/><circle cx="157.2" cy="183.6" r="3" fill="#e07a7a" opacity="0.75"/><circle cx="406.2" cy="225.8" r="3" fill="#7dce9a" opacity="0.75"/><circle cx="274.8" cy="104.3" r="3" fill="#7dce9a" opacity="0.75"/><circle cx="198.0" cy="212.4" r="3" fill="#7dce9a" opacity="0.75"/><circle cx="221.8" cy="196.9" r="3" fill="#e07a7a" opacity="0.75"/><circle cx="226.9" cy="139.6" r="3" fill="#e07a7a" opacity="0.75"/><circle cx="175.0" cy="193.9" r="3" fill="#7dce9a" opacity="0.75"/><circle cx="205.1" cy="215.3" r="3" fill="#7dce9a" opacity="0.75"/><circle cx="71.4" cy="204.7" r="3" fill="#7dce9a" opacity="0.75"/><circle cx="259.1" cy="214.1" r="3" fill="#e07a7a" opacity="0.75"/><circle cx="212.7" cy="162.4" r="3" fill="#e07a7a" opacity="0.75"/><circle cx="357.7" cy="198.9" r="3" fill="#e07a7a" opacity="0.75"/><circle cx="267.4" cy="229.1" r="3" fill="#7dce9a" opacity="0.75"/><circle cx="216.1" cy="186.2" r="3" fill="#e07a7a" opacity="0.75"/><circle cx="122.5" cy="204.9" r="3" fill="#7dce9a" opacity="0.75"/><circle cx="366.8" cy="220.8" r="3" fill="#7dce9a" opacity="0.75"/><circle cx="227.5" cy="84.7" r="3" fill="#7dce9a" opacity="0.75"/><circle cx="190.5" cy="195.2" r="3" fill="#e07a7a" opacity="0.75"/><circle cx="221.7" cy="183.2" r="3" fill="#7dce9a" opacity="0.75"/><circle cx="190.5" cy="206.7" r="3" fill="#7dce9a" opacity="0.75"/><circle cx="259.9" cy="207.9" r="3" fill="#7dce9a" opacity="0.75"/><circle cx="346.3" cy="197.5" r="3" fill="#7dce9a" opacity="0.75"/><circle cx="134.2" cy="198.9" r="3" fill="#7dce9a" opacity="0.75"/><circle cx="203.4" cy="209.5" r="3" fill="#7dce9a" opacity="0.75"/><circle cx="227.2" cy="201.2" r="3" fill="#7dce9a" opacity="0.75"/><circle cx="192.2" cy="192.0" r="3" fill="#7dce9a" opacity="0.75"/><circle cx="174.3" cy="184.4" r="3" fill="#7dce9a" opacity="0.75"/><circle cx="180.3" cy="200.4" r="3" fill="#e07a7a" opacity="0.75"/><circle cx="251.9" cy="197.4" r="3" fill="#7dce9a" opacity="0.75"/><circle cx="316.4" cy="160.9" r="3" fill="#7dce9a" opacity="0.75"/><circle cx="230.1" cy="196.0" r="3" fill="#7dce9a" opacity="0.75"/><circle cx="297.6" cy="181.8" r="3" fill="#7dce9a" opacity="0.75"/><circle cx="204.5" cy="198.9" r="3" fill="#7dce9a" opacity="0.75"/><circle cx="181.2" cy="200.3" r="3" fill="#7dce9a" opacity="0.75"/><circle cx="228.9" cy="213.1" r="3" fill="#7dce9a" opacity="0.75"/><circle cx="179.6" cy="178.4" r="3" fill="#7dce9a" opacity="0.75"/><circle cx="360.0" cy="167.4" r="3" fill="#7dce9a" opacity="0.75"/><circle cx="325.0" cy="172.4" r="3" fill="#7dce9a" opacity="0.75"/><circle cx="189.7" cy="167.8" r="3" fill="#7dce9a" opacity="0.75"/><circle cx="136.0" cy="191.7" r="3" fill="#e07a7a" opacity="0.75"/><circle cx="56.5" cy="213.7" r="3" fill="#7dce9a" opacity="0.75"/><circle cx="233.2" cy="212.3" r="3" fill="#e07a7a" opacity="0.75"/><circle cx="173.4" cy="175.5" r="3" fill="#7dce9a" opacity="0.75"/><circle cx="252.4" cy="195.1" r="3" fill="#e07a7a" opacity="0.75"/><circle cx="90.5" cy="203.5" r="3" fill="#e07a7a" opacity="0.75"/><circle cx="198.4" cy="210.9" r="3" fill="#7dce9a" opacity="0.75"/><circle cx="356.4" cy="221.9" r="3" fill="#7dce9a" opacity="0.75"/><circle cx="164.8" cy="191.9" r="3" fill="#7dce9a" opacity="0.75"/><circle cx="215.4" cy="209.1" r="3" fill="#e07a7a" opacity="0.75"/><circle cx="372.1" cy="194.2" r="3" fill="#7dce9a" opacity="0.75"/><circle cx="53.2" cy="217.7" r="3" fill="#7dce9a" opacity="0.75"/><circle cx="253.2" cy="119.1" r="3" fill="#e07a7a" opacity="0.75"/><circle cx="322.7" cy="232.3" r="3" fill="#7dce9a" opacity="0.75"/><circle cx="154.9" cy="198.1" r="3" fill="#e07a7a" opacity="0.75"/><circle cx="365.4" cy="156.9" r="3" fill="#7dce9a" opacity="0.75"/><circle cx="193.4" cy="164.6" r="3" fill="#7dce9a" opacity="0.75"/><circle cx="244.8" cy="198.2" r="3" fill="#e07a7a" opacity="0.75"/><circle cx="196.8" cy="98.7" r="3" fill="#7dce9a" opacity="0.75"/><circle cx="206.5" cy="174.5" r="3" fill="#e07a7a" opacity="0.75"/><circle cx="485.3" cy="189.7" r="3" fill="#7dce9a" opacity="0.75"/><circle cx="228.8" cy="188.9" r="3" fill="#e07a7a" opacity="0.75"/><circle cx="444.7" cy="107.7" r="3" fill="#7dce9a" opacity="0.75"/><circle cx="165.0" cy="146.6" r="3" fill="#7dce9a" opacity="0.75"/><circle cx="238.3" cy="184.5" r="3" fill="#e07a7a" opacity="0.75"/><circle cx="179.1" cy="193.7" r="3" fill="#7dce9a" opacity="0.75"/><circle cx="287.3" cy="159.7" r="3" fill="#7dce9a" opacity="0.75"/><circle cx="219.4" cy="205.4" r="3" fill="#7dce9a" opacity="0.75"/><circle cx="286.5" cy="221.1" r="3" fill="#7dce9a" opacity="0.75"/><circle cx="278.8" cy="127.6" r="3" fill="#7dce9a" opacity="0.75"/><circle cx="370.5" cy="203.5" r="3" fill="#e07a7a" opacity="0.75"/><circle cx="259.1" cy="131.1" r="3" fill="#7dce9a" opacity="0.75"/><circle cx="264.8" cy="173.0" r="3" fill="#7dce9a" opacity="0.75"/><circle cx="217.0" cy="158.4" r="3" fill="#e07a7a" opacity="0.75"/><circle cx="288.5" cy="201.7" r="3" fill="#7dce9a" opacity="0.75"/><circle cx="217.6" cy="145.2" r="3" fill="#e07a7a" opacity="0.75"/><circle cx="386.0" cy="50.0" r="3" fill="#7dce9a" opacity="0.75"/><circle cx="233.1" cy="206.5" r="3" fill="#7dce9a" opacity="0.75"/><circle cx="305.6" cy="184.1" r="3" fill="#e07a7a" opacity="0.75"/><circle cx="352.5" cy="212.6" r="3" fill="#e07a7a" opacity="0.75"/><circle cx="213.8" cy="120.2" r="3" fill="#7dce9a" opacity="0.75"/><circle cx="205.5" cy="221.4" r="3" fill="#7dce9a" opacity="0.75"/><circle cx="181.6" cy="198.2" r="3" fill="#7dce9a" opacity="0.75"/><circle cx="173.2" cy="178.7" r="3" fill="#7dce9a" opacity="0.75"/><circle cx="360.7" cy="118.0" r="3" fill="#7dce9a" opacity="0.75"/><circle cx="290.4" cy="193.8" r="3" fill="#7dce9a" opacity="0.75"/><circle cx="56.9" cy="225.7" r="3" fill="#7dce9a" opacity="0.75"/><circle cx="267.7" cy="148.7" r="3" fill="#7dce9a" opacity="0.75"/><circle cx="399.5" cy="119.1" r="3" fill="#7dce9a" opacity="0.75"/><circle cx="300.7" cy="239.2" r="3" fill="#7dce9a" opacity="0.75"/><circle cx="236.8" cy="149.6" r="3" fill="#e07a7a" opacity="0.75"/><circle cx="112.1" cy="157.2" r="3" fill="#e07a7a" opacity="0.75"/><circle cx="244.3" cy="184.3" r="3" fill="#7dce9a" opacity="0.75"/><circle cx="165.6" cy="201.1" r="3" fill="#7dce9a" opacity="0.75"/><circle cx="237.7" cy="173.0" r="3" fill="#e07a7a" opacity="0.75"/><circle cx="285.5" cy="204.3" r="3" fill="#7dce9a" opacity="0.75"/><circle cx="223.5" cy="213.2" r="3" fill="#7dce9a" opacity="0.75"/><circle cx="170.9" cy="194.8" r="3" fill="#7dce9a" opacity="0.75"/><circle cx="190.1" cy="175.8" r="3" fill="#7dce9a" opacity="0.75"/><circle cx="308.5" cy="187.9" r="3" fill="#7dce9a" opacity="0.75"/><circle cx="93.8" cy="174.6" r="3" fill="#7dce9a" opacity="0.75"/><circle cx="362.7" cy="177.8" r="3" fill="#7dce9a" opacity="0.75"/><circle cx="261.9" cy="67.9" r="3" fill="#e07a7a" opacity="0.75"/><circle cx="206.6" cy="194.6" r="3" fill="#7dce9a" opacity="0.75"/><circle cx="309.5" cy="245.4" r="3" fill="#7dce9a" opacity="0.75"/><circle cx="273.7" cy="219.0" r="3" fill="#7dce9a" opacity="0.75"/><circle cx="258.6" cy="199.5" r="3" fill="#7dce9a" opacity="0.75"/><circle cx="168.4" cy="207.5" r="3" fill="#e07a7a" opacity="0.75"/><circle cx="131.2" cy="187.7" r="3" fill="#7dce9a" opacity="0.75"/><circle cx="227.9" cy="175.6" r="3" fill="#7dce9a" opacity="0.75"/><circle cx="199.9" cy="170.2" r="3" fill="#7dce9a" opacity="0.75"/><circle cx="268.6" cy="234.3" r="3" fill="#7dce9a" opacity="0.75"/><circle cx="202.8" cy="170.1" r="3" fill="#7dce9a" opacity="0.75"/><circle cx="216.5" cy="146.7" r="3" fill="#e07a7a" opacity="0.75"/><circle cx="109.4" cy="196.5" r="3" fill="#7dce9a" opacity="0.75"/><circle cx="195.2" cy="173.1" r="3" fill="#7dce9a" opacity="0.75"/><circle cx="255.5" cy="178.8" r="3" fill="#7dce9a" opacity="0.75"/><circle cx="302.5" cy="212.9" r="3" fill="#7dce9a" opacity="0.75"/><circle cx="233.1" cy="169.6" r="3" fill="#e07a7a" opacity="0.75"/><circle cx="251.7" cy="193.8" r="3" fill="#e07a7a" opacity="0.75"/><circle cx="175.5" cy="179.9" r="3" fill="#7dce9a" opacity="0.75"/><circle cx="434.1" cy="264.8" r="3" fill="#7dce9a" opacity="0.75"/><circle cx="189.6" cy="203.3" r="3" fill="#e07a7a" opacity="0.75"/><circle cx="342.4" cy="191.3" r="3" fill="#7dce9a" opacity="0.75"/><circle cx="212.6" cy="200.5" r="3" fill="#7dce9a" opacity="0.75"/><circle cx="210.4" cy="220.2" r="3" fill="#7dce9a" opacity="0.75"/><circle cx="201.4" cy="170.9" r="3" fill="#7dce9a" opacity="0.75"/><circle cx="258.7" cy="181.4" r="3" fill="#7dce9a" opacity="0.75"/><circle cx="237.3" cy="110.7" r="3" fill="#7dce9a" opacity="0.75"/><circle cx="407.9" cy="135.8" r="3" fill="#7dce9a" opacity="0.75"/><circle cx="385.5" cy="219.0" r="3" fill="#e07a7a" opacity="0.75"/><circle cx="263.2" cy="207.1" r="3" fill="#7dce9a" opacity="0.75"/><circle cx="345.2" cy="172.1" r="3" fill="#7dce9a" opacity="0.75"/><circle cx="247.8" cy="190.2" r="3" fill="#7dce9a" opacity="0.75"/><circle cx="185.6" cy="177.5" r="3" fill="#7dce9a" opacity="0.75"/><circle cx="162.2" cy="193.2" r="3" fill="#7dce9a" opacity="0.75"/><circle cx="147.6" cy="149.7" r="3" fill="#e07a7a" opacity="0.75"/><circle cx="220.9" cy="180.4" r="3" fill="#e07a7a" opacity="0.75"/><circle cx="254.9" cy="177.3" r="3" fill="#7dce9a" opacity="0.75"/><circle cx="295.7" cy="221.5" r="3" fill="#7dce9a" opacity="0.75"/><circle cx="175.0" cy="205.6" r="3" fill="#7dce9a" opacity="0.75"/><circle cx="134.3" cy="174.6" r="3" fill="#7dce9a" opacity="0.75"/><circle cx="295.9" cy="205.7" r="3" fill="#e07a7a" opacity="0.75"/><circle cx="246.8" cy="211.2" r="3" fill="#7dce9a" opacity="0.75"/><circle cx="174.1" cy="187.1" r="3" fill="#7dce9a" opacity="0.75"/><circle cx="249.0" cy="192.4" r="3" fill="#7dce9a" opacity="0.75"/><circle cx="289.1" cy="206.1" r="3" fill="#7dce9a" opacity="0.75"/><circle cx="166.3" cy="165.4" r="3" fill="#7dce9a" opacity="0.75"/><circle cx="208.7" cy="216.4" r="3" fill="#7dce9a" opacity="0.75"/><circle cx="260.1" cy="226.4" r="3" fill="#7dce9a" opacity="0.75"/><circle cx="291.7" cy="176.6" r="3" fill="#7dce9a" opacity="0.75"/><circle cx="182.5" cy="165.2" r="3" fill="#e07a7a" opacity="0.75"/><circle cx="355.6" cy="198.2" r="3" fill="#7dce9a" opacity="0.75"/><circle cx="373.3" cy="160.8" r="3" fill="#e07a7a" opacity="0.75"/><circle cx="217.6" cy="157.5" r="3" fill="#7dce9a" opacity="0.75"/><circle cx="217.6" cy="206.0" r="3" fill="#7dce9a" opacity="0.75"/><circle cx="278.1" cy="86.7" r="3" fill="#e07a7a" opacity="0.75"/><circle cx="271.5" cy="217.4" r="3" fill="#e07a7a" opacity="0.75"/><circle cx="180.4" cy="187.6" r="3" fill="#e07a7a" opacity="0.75"/><circle cx="147.0" cy="201.9" r="3" fill="#e07a7a" opacity="0.75"/><circle cx="260.4" cy="187.5" r="3" fill="#7dce9a" opacity="0.75"/><circle cx="128.6" cy="170.7" r="3" fill="#7dce9a" opacity="0.75"/><circle cx="280.8" cy="181.7" r="3" fill="#7dce9a" opacity="0.75"/><circle cx="270.8" cy="185.7" r="3" fill="#e07a7a" opacity="0.75"/><circle cx="231.2" cy="221.5" r="3" fill="#7dce9a" opacity="0.75"/><circle cx="176.7" cy="177.4" r="3" fill="#7dce9a" opacity="0.75"/><circle cx="227.1" cy="212.8" r="3" fill="#7dce9a" opacity="0.75"/><circle cx="316.9" cy="204.3" r="3" fill="#7dce9a" opacity="0.75"/><circle cx="228.5" cy="222.2" r="3" fill="#7dce9a" opacity="0.75"/><circle cx="325.9" cy="161.8" r="3" fill="#e07a7a" opacity="0.75"/><circle cx="228.5" cy="148.0" r="3" fill="#e07a7a" opacity="0.75"/><circle cx="357.1" cy="110.6" r="3" fill="#7dce9a" opacity="0.75"/><circle cx="343.7" cy="208.4" r="3" fill="#e07a7a" opacity="0.75"/><circle cx="229.0" cy="160.8" r="3" fill="#7dce9a" opacity="0.75"/><circle cx="195.4" cy="201.4" r="3" fill="#7dce9a" opacity="0.75"/><circle cx="146.6" cy="190.1" r="3" fill="#7dce9a" opacity="0.75"/><circle cx="206.9" cy="218.7" r="3" fill="#7dce9a" opacity="0.75"/><circle cx="291.8" cy="179.4" r="3" fill="#7dce9a" opacity="0.75"/><circle cx="93.2" cy="215.7" r="3" fill="#7dce9a" opacity="0.75"/><circle cx="169.6" cy="173.2" r="3" fill="#e07a7a" opacity="0.75"/><circle cx="193.3" cy="206.4" r="3" fill="#7dce9a" opacity="0.75"/><circle cx="310.4" cy="217.9" r="3" fill="#7dce9a" opacity="0.75"/><circle cx="178.5" cy="161.0" r="3" fill="#e07a7a" opacity="0.75"/><circle cx="164.0" cy="189.2" r="3" fill="#7dce9a" opacity="0.75"/><circle cx="162.0" cy="175.0" r="3" fill="#7dce9a" opacity="0.75"/><circle cx="139.3" cy="162.2" r="3" fill="#e07a7a" opacity="0.75"/><circle cx="77.5" cy="204.2" r="3" fill="#7dce9a" opacity="0.75"/><circle cx="213.3" cy="128.3" r="3" fill="#e07a7a" opacity="0.75"/><circle cx="232.2" cy="219.3" r="3" fill="#7dce9a" opacity="0.75"/><circle cx="276.1" cy="194.4" r="3" fill="#e07a7a" opacity="0.75"/><circle cx="224.6" cy="199.5" r="3" fill="#7dce9a" opacity="0.75"/><circle cx="214.6" cy="192.8" r="3" fill="#7dce9a" opacity="0.75"/><circle cx="205.7" cy="193.9" r="3" fill="#7dce9a" opacity="0.75"/><circle cx="222.0" cy="214.0" r="3" fill="#7dce9a" opacity="0.75"/><circle cx="222.6" cy="198.9" r="3" fill="#7dce9a" opacity="0.75"/><circle cx="210.6" cy="145.6" r="3" fill="#7dce9a" opacity="0.75"/><circle cx="187.5" cy="169.5" r="3" fill="#7dce9a" opacity="0.75"/><circle cx="213.2" cy="123.7" r="3" fill="#7dce9a" opacity="0.75"/><circle cx="201.2" cy="170.3" r="3" fill="#7dce9a" opacity="0.75"/><circle cx="167.4" cy="166.5" r="3" fill="#7dce9a" opacity="0.75"/><circle cx="178.1" cy="206.6" r="3" fill="#7dce9a" opacity="0.75"/><circle cx="435.9" cy="192.0" r="3" fill="#e07a7a" opacity="0.75"/><circle cx="477.4" cy="158.7" r="3" fill="#7dce9a" opacity="0.75"/><circle cx="212.7" cy="196.4" r="3" fill="#7dce9a" opacity="0.75"/><circle cx="184.7" cy="167.5" r="3" fill="#e07a7a" opacity="0.75"/><circle cx="367.5" cy="172.1" r="3" fill="#7dce9a" opacity="0.75"/><circle cx="371.7" cy="240.2" r="3" fill="#7dce9a" opacity="0.75"/><circle cx="198.6" cy="193.2" r="3" fill="#7dce9a" opacity="0.75"/><circle cx="251.6" cy="120.0" r="3" fill="#e07a7a" opacity="0.75"/><circle cx="234.5" cy="193.5" r="3" fill="#7dce9a" opacity="0.75"/><circle cx="180.5" cy="156.8" r="3" fill="#7dce9a" opacity="0.75"/><circle cx="282.3" cy="190.3" r="3" fill="#7dce9a" opacity="0.75"/><circle cx="351.1" cy="152.5" r="3" fill="#e07a7a" opacity="0.75"/><circle cx="92.1" cy="207.3" r="3" fill="#7dce9a" opacity="0.75"/><circle cx="236.9" cy="188.5" r="3" fill="#7dce9a" opacity="0.75"/><circle cx="241.6" cy="173.4" r="3" fill="#7dce9a" opacity="0.75"/><circle cx="315.8" cy="214.0" r="3" fill="#7dce9a" opacity="0.75"/><circle cx="171.2" cy="183.6" r="3" fill="#7dce9a" opacity="0.75"/><circle cx="243.1" cy="217.2" r="3" fill="#7dce9a" opacity="0.75"/><circle cx="190.1" cy="201.1" r="3" fill="#e07a7a" opacity="0.75"/><circle cx="244.2" cy="189.1" r="3" fill="#7dce9a" opacity="0.75"/><circle cx="177.7" cy="185.5" r="3" fill="#e07a7a" opacity="0.75"/><circle cx="226.2" cy="167.5" r="3" fill="#7dce9a" opacity="0.75"/><circle cx="250.2" cy="140.9" r="3" fill="#7dce9a" opacity="0.75"/><circle cx="340.1" cy="208.2" r="3" fill="#7dce9a" opacity="0.75"/><circle cx="292.6" cy="231.4" r="3" fill="#7dce9a" opacity="0.75"/><circle cx="201.0" cy="218.1" r="3" fill="#7dce9a" opacity="0.75"/><circle cx="298.7" cy="222.1" r="3" fill="#e07a7a" opacity="0.75"/><circle cx="136.6" cy="165.0" r="3" fill="#7dce9a" opacity="0.75"/><circle cx="246.3" cy="203.7" r="3" fill="#7dce9a" opacity="0.75"/><circle cx="203.1" cy="148.9" r="3" fill="#7dce9a" opacity="0.75"/><circle cx="297.2" cy="125.3" r="3" fill="#7dce9a" opacity="0.75"/><circle cx="69.1" cy="218.1" r="3" fill="#7dce9a" opacity="0.75"/><circle cx="234.0" cy="167.3" r="3" fill="#e07a7a" opacity="0.75"/><circle cx="251.8" cy="219.9" r="3" fill="#7dce9a" opacity="0.75"/><circle cx="248.4" cy="178.6" r="3" fill="#7dce9a" opacity="0.75"/><circle cx="358.6" cy="240.8" r="3" fill="#e07a7a" opacity="0.75"/><circle cx="202.7" cy="195.3" r="3" fill="#e07a7a" opacity="0.75"/><circle cx="110.8" cy="198.7" r="3" fill="#7dce9a" opacity="0.75"/><circle cx="191.3" cy="184.6" r="3" fill="#7dce9a" opacity="0.75"/><circle cx="290.9" cy="206.8" r="3" fill="#7dce9a" opacity="0.75"/><circle cx="235.9" cy="196.3" r="3" fill="#7dce9a" opacity="0.75"/><circle cx="233.9" cy="157.4" r="3" fill="#7dce9a" opacity="0.75"/><circle cx="195.1" cy="145.4" r="3" fill="#7dce9a" opacity="0.75"/><circle cx="181.1" cy="215.1" r="3" fill="#7dce9a" opacity="0.75"/><circle cx="242.2" cy="218.9" r="3" fill="#e07a7a" opacity="0.75"/><circle cx="227.2" cy="205.3" r="3" fill="#7dce9a" opacity="0.75"/><circle cx="223.6" cy="211.8" r="3" fill="#7dce9a" opacity="0.75"/><circle cx="251.0" cy="200.3" r="3" fill="#e07a7a" opacity="0.75"/><circle cx="170.2" cy="192.4" r="3" fill="#e07a7a" opacity="0.75"/><circle cx="295.4" cy="206.5" r="3" fill="#e07a7a" opacity="0.75"/><circle cx="260.3" cy="209.9" r="3" fill="#7dce9a" opacity="0.75"/><circle cx="330.5" cy="205.3" r="3" fill="#7dce9a" opacity="0.75"/><circle cx="101.4" cy="178.0" r="3" fill="#7dce9a" opacity="0.75"/><circle cx="323.7" cy="165.8" r="3" fill="#7dce9a" opacity="0.75"/><circle cx="170.1" cy="176.0" r="3" fill="#7dce9a" opacity="0.75"/><circle cx="206.9" cy="129.1" r="3" fill="#7dce9a" opacity="0.75"/><circle cx="67.0" cy="236.6" r="3" fill="#7dce9a" opacity="0.75"/><circle cx="226.5" cy="158.5" r="3" fill="#e07a7a" opacity="0.75"/><circle cx="65.5" cy="200.1" r="3" fill="#7dce9a" opacity="0.75"/><circle cx="180.4" cy="183.7" r="3" fill="#e07a7a" opacity="0.75"/><circle cx="49.6" cy="241.1" r="3" fill="#7dce9a" opacity="0.75"/><circle cx="174.3" cy="184.3" r="3" fill="#7dce9a" opacity="0.75"/><circle cx="148.2" cy="199.3" r="3" fill="#7dce9a" opacity="0.75"/><circle cx="270.2" cy="165.4" r="3" fill="#7dce9a" opacity="0.75"/><circle cx="207.1" cy="206.7" r="3" fill="#e07a7a" opacity="0.75"/><circle cx="423.2" cy="242.4" r="3" fill="#7dce9a" opacity="0.75"/><circle cx="225.2" cy="156.3" r="3" fill="#7dce9a" opacity="0.75"/><circle cx="420.1" cy="164.7" r="3" fill="#7dce9a" opacity="0.75"/><circle cx="242.0" cy="180.7" r="3" fill="#7dce9a" opacity="0.75"/><circle cx="199.3" cy="175.6" r="3" fill="#7dce9a" opacity="0.75"/><circle cx="153.5" cy="134.1" r="3" fill="#e07a7a" opacity="0.75"/><circle cx="171.6" cy="145.5" r="3" fill="#7dce9a" opacity="0.75"/><circle cx="284.5" cy="182.2" r="3" fill="#7dce9a" opacity="0.75"/><circle cx="113.4" cy="202.7" r="3" fill="#7dce9a" opacity="0.75"/><circle cx="259.6" cy="210.1" r="3" fill="#7dce9a" opacity="0.75"/><circle cx="254.2" cy="166.0" r="3" fill="#7dce9a" opacity="0.75"/><circle cx="458.1" cy="199.1" r="3" fill="#7dce9a" opacity="0.75"/><circle cx="362.2" cy="230.5" r="3" fill="#7dce9a" opacity="0.75"/><circle cx="164.8" cy="204.3" r="3" fill="#7dce9a" opacity="0.75"/><circle cx="260.6" cy="215.8" r="3" fill="#e07a7a" opacity="0.75"/><circle cx="135.6" cy="177.4" r="3" fill="#7dce9a" opacity="0.75"/><circle cx="163.0" cy="176.7" r="3" fill="#7dce9a" opacity="0.75"/><circle cx="197.9" cy="192.3" r="3" fill="#7dce9a" opacity="0.75"/><circle cx="49.3" cy="228.6" r="3" fill="#e07a7a" opacity="0.75"/><circle cx="190.1" cy="184.0" r="3" fill="#7dce9a" opacity="0.75"/><circle cx="370.6" cy="263.6" r="3" fill="#e07a7a" opacity="0.75"/><circle cx="363.5" cy="216.3" r="3" fill="#e07a7a" opacity="0.75"/><circle cx="250.7" cy="212.4" r="3" fill="#7dce9a" opacity="0.75"/><circle cx="185.6" cy="205.5" r="3" fill="#7dce9a" opacity="0.75"/><circle cx="160.1" cy="181.6" r="3" fill="#e07a7a" opacity="0.75"/><circle cx="287.1" cy="96.4" r="3" fill="#e07a7a" opacity="0.75"/><circle cx="227.4" cy="145.8" r="3" fill="#7dce9a" opacity="0.75"/><circle cx="259.7" cy="199.8" r="3" fill="#7dce9a" opacity="0.75"/><circle cx="352.5" cy="122.7" r="3" fill="#e07a7a" opacity="0.75"/><circle cx="255.4" cy="204.1" r="3" fill="#e07a7a" opacity="0.75"/><circle cx="225.6" cy="205.9" r="3" fill="#7dce9a" opacity="0.75"/><circle cx="135.7" cy="170.9" r="3" fill="#7dce9a" opacity="0.75"/><circle cx="203.4" cy="201.6" r="3" fill="#7dce9a" opacity="0.75"/><circle cx="182.0" cy="135.5" r="3" fill="#7dce9a" opacity="0.75"/><circle cx="40.0" cy="233.0" r="3" fill="#7dce9a" opacity="0.75"/><circle cx="274.8" cy="246.6" r="3" fill="#7dce9a" opacity="0.75"/><circle cx="64.2" cy="211.9" r="3" fill="#e07a7a" opacity="0.75"/><circle cx="91.9" cy="215.9" r="3" fill="#7dce9a" opacity="0.75"/><circle cx="250.5" cy="190.1" r="3" fill="#7dce9a" opacity="0.75"/><circle cx="88.6" cy="180.2" r="3" fill="#7dce9a" opacity="0.75"/><circle cx="168.7" cy="177.7" r="3" fill="#7dce9a" opacity="0.75"/><circle cx="231.8" cy="225.0" r="3" fill="#7dce9a" opacity="0.75"/><circle cx="278.4" cy="96.3" r="3" fill="#7dce9a" opacity="0.75"/><circle cx="151.4" cy="137.0" r="3" fill="#7dce9a" opacity="0.75"/><circle cx="246.5" cy="241.2" r="3" fill="#e07a7a" opacity="0.75"/><circle cx="83.3" cy="210.1" r="3" fill="#7dce9a" opacity="0.75"/><circle cx="279.4" cy="206.9" r="3" fill="#7dce9a" opacity="0.75"/><circle cx="232.8" cy="210.4" r="3" fill="#7dce9a" opacity="0.75"/><circle cx="269.2" cy="200.3" r="3" fill="#7dce9a" opacity="0.75"/><circle cx="252.5" cy="172.5" r="3" fill="#7dce9a" opacity="0.75"/><circle cx="202.2" cy="200.1" r="3" fill="#7dce9a" opacity="0.75"/><circle cx="264.6" cy="140.1" r="3" fill="#7dce9a" opacity="0.75"/><circle cx="272.9" cy="248.5" r="3" fill="#7dce9a" opacity="0.75"/><circle cx="286.5" cy="230.5" r="3" fill="#7dce9a" opacity="0.75"/><circle cx="194.5" cy="200.9" r="3" fill="#7dce9a" opacity="0.75"/><circle cx="219.8" cy="191.2" r="3" fill="#e07a7a" opacity="0.75"/><circle cx="246.6" cy="213.0" r="3" fill="#7dce9a" opacity="0.75"/><circle cx="172.1" cy="152.1" r="3" fill="#7dce9a" opacity="0.75"/><circle cx="286.1" cy="234.8" r="3" fill="#7dce9a" opacity="0.75"/><circle cx="318.2" cy="226.5" r="3" fill="#7dce9a" opacity="0.75"/><circle cx="427.3" cy="142.7" r="3" fill="#7dce9a" opacity="0.75"/><circle cx="120.6" cy="186.7" r="3" fill="#7dce9a" opacity="0.75"/><circle cx="242.1" cy="191.9" r="3" fill="#e07a7a" opacity="0.75"/><circle cx="302.7" cy="115.2" r="3" fill="#7dce9a" opacity="0.75"/><circle cx="106.0" cy="187.9" r="3" fill="#7dce9a" opacity="0.75"/><circle cx="197.6" cy="165.8" r="3" fill="#7dce9a" opacity="0.75"/><circle cx="294.1" cy="170.0" r="3" fill="#7dce9a" opacity="0.75"/><circle cx="278.3" cy="106.3" r="3" fill="#7dce9a" opacity="0.75"/><circle cx="204.0" cy="186.0" r="3" fill="#e07a7a" opacity="0.75"/><circle cx="231.9" cy="199.0" r="3" fill="#7dce9a" opacity="0.75"/><circle cx="431.7" cy="183.0" r="3" fill="#e07a7a" opacity="0.75"/><circle cx="291.3" cy="213.7" r="3" fill="#7dce9a" opacity="0.75"/><circle cx="290.4" cy="221.9" r="3" fill="#7dce9a" opacity="0.75"/><circle cx="462.5" cy="230.9" r="3" fill="#7dce9a" opacity="0.75"/><circle cx="53.4" cy="239.2" r="3" fill="#7dce9a" opacity="0.75"/><circle cx="298.6" cy="218.3" r="3" fill="#7dce9a" opacity="0.75"/><circle cx="208.6" cy="159.5" r="3" fill="#7dce9a" opacity="0.75"/><circle cx="89.8" cy="197.9" r="3" fill="#7dce9a" opacity="0.75"/><circle cx="223.8" cy="161.6" r="3" fill="#7dce9a" opacity="0.75"/><circle cx="248.5" cy="140.0" r="3" fill="#7dce9a" opacity="0.75"/><circle cx="212.2" cy="210.0" r="3" fill="#7dce9a" opacity="0.75"/><circle cx="240.8" cy="229.1" r="3" fill="#7dce9a" opacity="0.75"/><circle cx="156.7" cy="167.4" r="3" fill="#7dce9a" opacity="0.75"/><circle cx="86.8" cy="186.2" r="3" fill="#7dce9a" opacity="0.75"/><circle cx="111.6" cy="191.6" r="3" fill="#7dce9a" opacity="0.75"/><circle cx="588.6" cy="320.0" r="3" fill="#7dce9a" opacity="0.75"/><circle cx="249.6" cy="168.8" r="3" fill="#7dce9a" opacity="0.75"/><circle cx="234.8" cy="88.6" r="3" fill="#7dce9a" opacity="0.75"/><circle cx="151.6" cy="156.7" r="3" fill="#7dce9a" opacity="0.75"/><circle cx="226.8" cy="171.5" r="3" fill="#7dce9a" opacity="0.75"/><circle cx="179.8" cy="156.1" r="3" fill="#7dce9a" opacity="0.75"/><circle cx="221.4" cy="203.7" r="3" fill="#7dce9a" opacity="0.75"/><circle cx="235.6" cy="188.1" r="3" fill="#e07a7a" opacity="0.75"/><circle cx="203.2" cy="162.3" r="3" fill="#7dce9a" opacity="0.75"/><circle cx="336.0" cy="156.9" r="3" fill="#e07a7a" opacity="0.75"/><circle cx="252.4" cy="158.0" r="3" fill="#e07a7a" opacity="0.75"/><circle cx="175.3" cy="169.3" r="3" fill="#7dce9a" opacity="0.75"/><circle cx="131.3" cy="193.0" r="3" fill="#e07a7a" opacity="0.75"/><circle cx="225.9" cy="211.1" r="3" fill="#e07a7a" opacity="0.75"/><circle cx="306.0" cy="210.6" r="3" fill="#e07a7a" opacity="0.75"/><circle cx="195.5" cy="136.5" r="3" fill="#7dce9a" opacity="0.75"/><circle cx="150.6" cy="185.9" r="3" fill="#7dce9a" opacity="0.75"/><circle cx="271.6" cy="199.6" r="3" fill="#7dce9a" opacity="0.75"/><circle cx="288.0" cy="224.4" r="3" fill="#e07a7a" opacity="0.75"/><circle cx="267.3" cy="140.6" r="3" fill="#e07a7a" opacity="0.75"/><circle cx="306.5" cy="222.5" r="3" fill="#7dce9a" opacity="0.75"/><circle cx="163.5" cy="197.3" r="3" fill="#7dce9a" opacity="0.75"/><circle cx="116.3" cy="156.9" r="3" fill="#7dce9a" opacity="0.75"/><circle cx="228.5" cy="143.6" r="3" fill="#7dce9a" opacity="0.75"/><circle cx="377.9" cy="174.3" r="3" fill="#7dce9a" opacity="0.75"/><circle cx="192.7" cy="201.5" r="3" fill="#e07a7a" opacity="0.75"/><circle cx="337.5" cy="184.3" r="3" fill="#7dce9a" opacity="0.75"/><circle cx="186.0" cy="166.8" r="3" fill="#e07a7a" opacity="0.75"/><circle cx="160.6" cy="197.8" r="3" fill="#7dce9a" opacity="0.75"/><circle cx="259.1" cy="143.2" r="3" fill="#7dce9a" opacity="0.75"/><circle cx="257.0" cy="213.8" r="3" fill="#7dce9a" opacity="0.75"/><circle cx="281.4" cy="175.5" r="3" fill="#7dce9a" opacity="0.75"/><circle cx="125.0" cy="182.5" r="3" fill="#7dce9a" opacity="0.75"/><circle cx="190.5" cy="198.3" r="3" fill="#7dce9a" opacity="0.75"/><circle cx="228.9" cy="194.4" r="3" fill="#7dce9a" opacity="0.75"/><circle cx="182.7" cy="165.3" r="3" fill="#7dce9a" opacity="0.75"/><circle cx="169.8" cy="210.1" r="3" fill="#e07a7a" opacity="0.75"/><circle cx="254.3" cy="225.8" r="3" fill="#e07a7a" opacity="0.75"/><circle cx="143.6" cy="185.7" r="3" fill="#e07a7a" opacity="0.75"/></svg>
